<svg xmlns="http://www.w3.org/2000/svg" version="1.1" xmlns:xlink="http://www.w3.org/1999/xlink" xmlns:svgjs="http://svgjs.dev/svgjs" width="1440" height="560" preserveAspectRatio="none" viewBox="0 0 1440 560"><g mask="url(&quot;#SvgjsMask1007&quot;)" fill="none"><rect width="1440" height="560" x="0" y="0" fill="#0e2a47"></rect><path d="M479.0178280912623 277.6521578998087L605.3225267827913 369.4178929861075 697.0882618690902 243.1131942945785 570.7835631775612 151.34745920827964z" fill="rgba(28, 83, 142, 0.4)" class="triangle-float2"></path><path d="M264.3217193400383 242.96956183618283L221.7720122154256 353.5003722589991 324.29779018576227 339.0913138445359z" fill="rgba(28, 83, 142, 0.4)" class="triangle-float1"></path><path d="M608.9245282228217 439.2038914721379L556.7143316446578 551.1690193551747 720.8896561058584 491.4140880503017z" fill="rgba(28, 83, 142, 0.4)" class="triangle-float3"></path><path d="M863.0662387817279 459.39992445958814L968.4479513389363 561.1658613460298 1070.213888225378 455.78414878882137 964.8321756681696 354.0182119023797z" fill="rgba(28, 83, 142, 0.4)" class="triangle-float1"></path><path d="M1251.955617269124 198.50156843102724L1226.0238653400306 34.77493041053597 1062.2972273195394 60.70668233962945 1088.2289792486329 224.43332036012072z" fill="rgba(28, 83, 142, 0.4)" class="triangle-float2"></path><path d="M1074.8090859845424 46.71417620978458L1158.138422118375 139.26077977242767 1250.6850256810183 55.93144363859497 1167.3556895471854-36.615159924048115z" fill="rgba(28, 83, 142, 0.4)" class="triangle-float3"></path><path d="M427.77131562503615 297.96462005372297L460.1047248453573 204.06158128372257 303.0834620801961 202.51298683824103z" fill="rgba(28, 83, 142, 0.4)" class="triangle-float1"></path><path d="M640.107,233.435C670.877,234.158,698.54,217.911,715.909,192.503C736.264,162.727,754.278,124.465,735.758,93.514C717.491,62.985,675.673,64.931,640.107,65.818C606.721,66.651,568.846,69.035,552.377,98.088C536.04,126.908,552.214,161.281,570.233,189.08C586.315,213.892,610.547,232.74,640.107,233.435" fill="rgba(28, 83, 142, 0.4)" class="triangle-float1"></path><path d="M1437.2414354757302 177.3375001050522L1488.3563823821962 20.02186950743507 1279.925804878113 126.22255319858627z" fill="rgba(28, 83, 142, 0.4)" class="triangle-float1"></path><path d="M168.28536890760904 69.95431297275837L185.59652420255503 210.94235876326448 326.5845699930611 193.6312034683185 309.2734146981152 52.64315767781238z" fill="rgba(28, 83, 142, 0.4)" class="triangle-float2"></path><path d="M221.6,609.222C245.431,609.047,263.698,589.657,274.287,568.306C283.672,549.383,281.249,527.83,271.172,509.267C260.524,489.652,243.919,471.346,221.6,471.247C199.158,471.148,182.114,489.181,171.263,508.825C160.833,527.707,157.888,549.807,167.556,569.09C178.335,590.588,197.552,609.399,221.6,609.222" fill="rgba(28, 83, 142, 0.4)" class="triangle-float3"></path><path d="M1122.6275946786952 494.4427344497794L1154.7287420501048 382.4927294428601 1042.7787370431854 350.3915820714505 1010.6775896717759 462.34158707836986z" fill="rgba(28, 83, 142, 0.4)" class="triangle-float3"></path><path d="M1432.17,377.031C1462.264,375.986,1485.111,352.654,1499.338,326.115C1512.677,301.233,1516.69,271.121,1501.808,247.13C1487.58,224.194,1459.159,218.201,1432.17,217.839C1404.335,217.466,1374.698,222.08,1359.218,245.217C1342.152,270.725,1341.547,304.223,1356.409,331.076C1371.738,358.774,1400.532,378.129,1432.17,377.031" fill="rgba(28, 83, 142, 0.4)" class="triangle-float3"></path><path d="M674.3803504081054-36.073682201919354L618.9723168161387 1.2995083573534245 702.7361194510312 65.72496346566702z" fill="rgba(28, 83, 142, 0.4)" class="triangle-float1"></path><path d="M594.027034434956 333.45402885860045L480.7534294492496 198.1982319185273 425.4854357908615 342.1762778255605z" fill="rgba(28, 83, 142, 0.4)" class="triangle-float1"></path><path d="M1032.582954728928 379.23207861033114L905.6049756521695 406.22208125069494 1059.5729573692918 506.2100576870896z" fill="rgba(28, 83, 142, 0.4)" class="triangle-float2"></path><path d="M710.36264470619 224.582964050727L855.2550065913299 298.40930986856233 929.0813524091652 153.51694798342243 784.1889905240254 79.69060216558711z" fill="rgba(28, 83, 142, 0.4)" class="triangle-float2"></path><path d="M92.21943384846598 370.76995363368974L13.226635221313543 338.85479133620476 4.850291088662317 473.3015704256759z" fill="rgba(28, 83, 142, 0.4)" class="triangle-float3"></path><path d="M521.0650627161159 272.7311084527347L636.7479788857479 282.8520521811973 646.8689226142104 167.16913601156534 531.1860064445784 157.04819228310276z" fill="rgba(28, 83, 142, 0.4)" class="triangle-float1"></path><path d="M512.478,468.988C561.906,466.395,594.643,422.353,617.217,378.305C637.438,338.848,642.463,293.902,622.494,254.317C600.256,210.235,561.85,170.336,512.478,170.682C463.517,171.025,429.412,213.341,405.102,255.841C381.015,297.952,364.978,347.066,386.804,390.392C410.629,437.686,459.595,471.762,512.478,468.988" fill="rgba(28, 83, 142, 0.4)" class="triangle-float3"></path></g><defs><mask id="SvgjsMask1007"><rect width="1440" height="560" fill="#ffffff"></rect></mask><style>
                @keyframes float1 {
                    0%{transform: translate(0, 0)}
                    50%{transform: translate(-10px, 0)}
                    100%{transform: translate(0, 0)}
                }

                .triangle-float1 {
                    animation: float1 5s infinite;
                }

                @keyframes float2 {
                    0%{transform: translate(0, 0)}
                    50%{transform: translate(-5px, -5px)}
                    100%{transform: translate(0, 0)}
                }

                .triangle-float2 {
                    animation: float2 4s infinite;
                }

                @keyframes float3 {
                    0%{transform: translate(0, 0)}
                    50%{transform: translate(0, -10px)}
                    100%{transform: translate(0, 0)}
                }

                .triangle-float3 {
                    animation: float3 6s infinite;
                }
            </style></defs></svg>